<svg xmlns="http://www.w3.org/2000/svg" viewBox="0 0 1200 420" role="img" aria-label="cyclo: agentic systems, in a Git loop">
  <rect width="1200" height="420" fill="#EFE7D6"/>
  <circle cx="900" cy="205" r="180" fill="none" stroke="#928B7E" stroke-width="2.5" stroke-dasharray="10 14"/>
  <circle cx="900" cy="25" r="13" fill="#D8402E"/>
  <circle cx="1130" cy="70" r="11" fill="#3E7C5A"/>
  <circle cx="888.6" cy="215.5" r="2.7" fill="#2A5CAA"/>
  <circle cx="901.9" cy="183.2" r="2.9" fill="#EFB02C"/>
  <circle cx="916.3" cy="226.3" r="3.1" fill="#3E7C5A"/>
  <circle cx="869.5" cy="199.6" r="3.2" fill="#201A12"/>
  <circle cx="929.2" cy="186.4" r="3.3" fill="#D8402E"/>
  <circle cx="890.1" cy="241.7" r="3.4" fill="#2A5CAA"/>
  <circle cx="881.1" cy="168.6" r="3.5" fill="#EFB02C"/>
  <circle cx="941.2" cy="220.0" r="3.6" fill="#3E7C5A"/>
  <circle cx="857.0" cy="222.7" r="3.7" fill="#201A12"/>
  <circle cx="920.8" cy="160.6" r="3.8" fill="#D8402E"/>
  <circle cx="915.4" cy="254.1" r="3.8" fill="#2A5CAA"/>
  <circle cx="853.5" cy="178.1" r="3.9" fill="#EFB02C"/>
  <circle cx="954.6" cy="193.0" r="4.0" fill="#3E7C5A"/>
  <circle cx="866.6" cy="252.4" r="4.1" fill="#201A12"/>
  <circle cx="892.3" cy="145.5" r="4.1" fill="#D8402E"/>
  <circle cx="947.4" cy="245.0" r="4.2" fill="#2A5CAA"/>
  <circle cx="836.1" cy="207.6" r="4.2" fill="#EFB02C"/>
  <circle cx="946.6" cy="158.6" r="4.3" fill="#3E7C5A"/>
  <circle cx="896.9" cy="272.5" r="4.4" fill="#201A12"/>
  <circle cx="855.6" cy="151.8" r="4.4" fill="#D8402E"/>
  <circle cx="970.4" cy="214.5" r="4.5" fill="#2A5CAA"/>
  <circle cx="840.3" cy="246.5" r="4.5" fill="#EFB02C"/>
  <circle cx="916.3" cy="132.5" r="4.6" fill="#3E7C5A"/>
  <circle cx="937.7" cy="270.9" r="4.6" fill="#201A12"/>
  <circle cx="826.2" cy="181.4" r="4.7" fill="#D8402E"/>
  <circle cx="971.8" cy="171.9" r="4.7" fill="#2A5CAA"/>
  <circle cx="868.9" cy="279.3" r="4.8" fill="#EFB02C"/>
  <circle cx="872.2" cy="127.8" r="4.8" fill="#3E7C5A"/>
  <circle cx="973.9" cy="243.8" r="4.9" fill="#201A12"/>
  <circle cx="817.9" cy="226.6" r="4.9" fill="#D8402E"/>
  <circle cx="946.7" cy="132.4" r="5.0" fill="#2A5CAA"/>
  <circle cx="914.8" cy="291.4" r="5.0" fill="#EFB02C"/>
  <circle cx="829.6" cy="150.5" r="5.0" fill="#3E7C5A"/>
  <circle cx="990.1" cy="197.6" r="5.1" fill="#201A12"/>
  <circle cx="837.7" cy="272.3" r="5.1" fill="#D8402E"/>
  <circle cx="900.5" cy="112.0" r="5.2" fill="#2A5CAA"/>
  <circle cx="963.3" cy="274.8" r="5.2" fill="#EFB02C"/>
  <circle cx="804.9" cy="196.2" r="5.3" fill="#3E7C5A"/>
  <circle cx="977.1" cy="146.5" r="5.3" fill="#201A12"/>
  <circle cx="882.4" cy="301.4" r="5.3" fill="#D8402E"/>
  <circle cx="847.2" cy="121.0" r="5.4" fill="#2A5CAA"/>
  <circle cx="996.9" cy="231.6" r="5.4" fill="#EFB02C"/>
  <circle cx="809.6" cy="251.4" r="5.5" fill="#3E7C5A"/>
  <circle cx="935.8" cy="108.6" r="5.5" fill="#201A12"/>
  <circle cx="939.2" cy="301.3" r="5.5" fill="#D8402E"/>
  <circle cx="805.0" cy="160.0" r="5.6" fill="#2A5CAA"/>
  <circle cx="1001.6" cy="173.7" r="5.6" fill="#EFB02C"/>
  <circle cx="845.7" cy="297.6" r="5.6" fill="#3E7C5A"/>
  <circle cx="877.2" cy="98.9" r="5.7" fill="#201A12"/>
  <circle cx="989.3" cy="268.5" r="5.7" fill="#D8402E"/>
  <circle cx="790.2" cy="218.7" r="5.7" fill="#2A5CAA"/>
  <circle cx="972.5" cy="119.9" r="5.8" fill="#EFB02C"/>
  <circle cx="904.1" cy="317.8" r="5.8" fill="#3E7C5A"/>
  <circle cx="820.1" cy="123.9" r="5.8" fill="#201A12"/>
  <circle cx="1014.8" cy="210.9" r="5.9" fill="#D8402E"/>
  <circle cx="810.6" cy="278.9" r="5.9" fill="#2A5CAA"/>
  <circle cx="916.2" cy="89.1" r="5.9" fill="#EFB02C"/>
  <circle cx="966.9" cy="302.2" r="6.0" fill="#3E7C5A"/>
  <circle cx="784.0" cy="178.3" r="6.0" fill="#201A12"/>
  <circle cx="1004.5" cy="145.8" r="6.0" fill="#D8402E"/>
  <circle cx="862.6" cy="320.1" r="6.1" fill="#2A5CAA"/>
  <circle cx="849.4" cy="93.9" r="6.1" fill="#EFB02C"/>
  <circle cx="1013.2" cy="253.1" r="6.1" fill="#3E7C5A"/>
  <circle cx="783.1" cy="246.4" r="6.2" fill="#201A12"/>
  <circle cx="958.7" cy="94.7" r="6.2" fill="#D8402E"/>
  <circle cx="931.5" cy="326.9" r="6.2" fill="#2A5CAA"/>
  <circle cx="793.6" cy="135.8" r="6.3" fill="#EFB02C"/>
  <circle cx="1026.1" cy="184.0" r="6.3" fill="#3E7C5A"/>
  <circle cx="820.6" cy="306.4" r="6.3" fill="#201A12"/>
  <circle cx="890.0" cy="75.7" r="6.3" fill="#D8402E"/>
  <circle cx="995.4" cy="294.2" r="6.4" fill="#2A5CAA"/>
  <circle cx="768.5" cy="203.7" r="6.4" fill="#EFB02C"/>
  <circle cx="998.5" cy="116.5" r="6.4" fill="#3E7C5A"/>
  <circle cx="887.0" cy="337.7" r="6.5" fill="#201A12"/>
  <circle cx="819.4" cy="97.7" r="6.5" fill="#D8402E"/>
  <circle cx="1032.8" cy="229.9" r="6.5" fill="#2A5CAA"/>
  <circle cx="784.5" cy="276.8" r="6.6" fill="#EFB02C"/>
  <circle cx="936.9" cy="73.2" r="6.6" fill="#3E7C5A"/>
  <circle cx="962.3" cy="327.9" r="6.6" fill="#201A12"/>
  <circle cx="770.3" cy="156.1" r="6.6" fill="#D8402E"/>
  <circle cx="1029.5" cy="153.1" r="6.7" fill="#2A5CAA"/>
  <circle cx="839.2" cy="331.5" r="6.7" fill="#EFB02C"/>
  <circle cx="859.1" cy="69.8" r="6.7" fill="#3E7C5A"/>
  <circle cx="1022.2" cy="277.5" r="6.7" fill="#201A12"/>
  <circle cx="760.1" cy="234.3" r="6.8" fill="#D8402E"/>
  <circle cx="62" cy="194" r="5.5" fill="#D8402E"/>
  <circle cx="79" cy="194" r="5.5" fill="#2A5CAA"/>
  <circle cx="96" cy="194" r="5.5" fill="#EFB02C"/>
  <text x="114" y="200" font-family="'Helvetica Neue',Helvetica,Arial,sans-serif" font-size="13" font-weight="700" letter-spacing="3.5" fill="#201A12">A LOCAL-FIRST AGENT RUNTIME</text>
  <text x="52" y="328" font-family="'Helvetica Neue',Helvetica,Arial,sans-serif" font-size="132" font-weight="700" letter-spacing="-8" fill="#201A12">cyclo</text>
  <text x="56" y="370" font-family="'Helvetica Neue',Helvetica,Arial,sans-serif" font-size="27" font-weight="500" fill="#201A12">Agentic systems, <tspan fill="#D8402E">in a Git loop.</tspan></text>
  <text x="56" y="403" font-family="'Helvetica Neue',Helvetica,Arial,sans-serif" font-size="12.5" font-weight="700" letter-spacing="2.5" fill="#201A12">V0.2.1 · MIT · LINUX · PYTHON 3.10+ · DCOMP</text>
</svg>
